<?xml version="1.0" encoding="UTF-8"?>
<!DOCTYPE svg PUBLIC "-//W3C//DTD SVG 1.1//EN" "http://www.w3.org/Graphics/SVG/1.1/DTD/svg11.dtd">
<!-- Creator: CorelDRAW 2021 (64-Bit) -->
<svg xmlns="http://www.w3.org/2000/svg" xml:space="preserve" width="3.5746mm" height="2.9525mm" version="1.1" style="shape-rendering:geometricPrecision; text-rendering:geometricPrecision; image-rendering:optimizeQuality; fill-rule:evenodd; clip-rule:evenodd"
viewBox="0 0 2.9 2.39"
 xmlns:xlink="http://www.w3.org/1999/xlink"
 xmlns:xodm="http://www.corel.com/coreldraw/odm/2003">
 <defs>
  <style type="text/css">
   <![CDATA[
    .fil0 {fill:#373435;fill-rule:nonzero}
   ]]>
  </style>
 </defs>
 <g id="Capa_x0020_1">
  <metadata id="CorelCorpID_0Corel-Layer"/>
  <path class="fil0" d="M2.89 1.26c0,-0 0,-0 0,-0.01 0,-0 0,-0.01 0.01,-0.01 0,-0 0,-0 0,-0.01 0,-0.01 0,-0.01 0,-0.02 0,-0 0,-0 0,-0 0,0 0,0 0,-0 0,0 0,0 0,-0 0,-0.01 -0,-0.01 -0,-0.02 -0,-0 -0,-0 -0,-0.01 -0,-0 -0,-0.01 -0,-0.01 -0,-0 -0,-0 -0,-0.01 -0,-0 -0,-0.01 -0.01,-0.01 -0,-0 -0,-0 -0.01,-0.01 -0,-0 -0.01,-0.01 -0.01,-0.01 -0,-0 -0,-0 -0,-0l-1.38 -1.11c-0.04,-0.03 -0.11,-0.03 -0.14,0.01 -0.03,0.04 -0.03,0.11 0.01,0.14l1.16 0.94 -2.42 0c-0.06,0 -0.1,0.04 -0.1,0.1 0,0.06 0.04,0.1 0.1,0.1l2.42 0 -1.13 0.9c-0.04,0.03 -0.05,0.1 -0.02,0.14 0.02,0.02 0.05,0.04 0.08,0.04 0.02,0 0.04,-0.01 0.06,-0.02l1.35 -1.08c0,-0 0,-0 0,-0 0,-0 0.01,-0.01 0.01,-0.01 0,-0 0,-0 0.01,-0.01 0,-0 0.01,-0.01 0.01,-0.01z"/>
 </g>
</svg>
