<?xml version="1.0" encoding="UTF-8"?>
<!DOCTYPE svg PUBLIC "-//W3C//DTD SVG 1.1//EN" "http://www.w3.org/Graphics/SVG/1.1/DTD/svg11.dtd">
<!-- Creator: CorelDRAW 2021 (64-Bit) -->
<svg xmlns="http://www.w3.org/2000/svg" xml:space="preserve" width="3.5746mm" height="2.9525mm" version="1.1" style="shape-rendering:geometricPrecision; text-rendering:geometricPrecision; image-rendering:optimizeQuality; fill-rule:evenodd; clip-rule:evenodd"
viewBox="0 0 2.7 2.23"
 xmlns:xlink="http://www.w3.org/1999/xlink"
 xmlns:xodm="http://www.corel.com/coreldraw/odm/2003">
 <defs>
  <style type="text/css">
   <![CDATA[
    .fil0 {fill:#2E4F97;fill-rule:nonzero}
   ]]>
  </style>
 </defs>
 <g id="Capa_x0020_1">
  <metadata id="CorelCorpID_0Corel-Layer"/>
  <path class="fil0" d="M2.69 1.17c0,-0 0,-0 0,-0.01 0,-0 0,-0.01 0,-0.01 0,-0 0,-0 0,-0.01 0,-0.01 0,-0.01 0,-0.02 0,-0 0,-0 0,-0 0,0 0,0 0,-0 0,0 0,0 0,-0 0,-0.01 -0,-0.01 -0,-0.02 -0,-0 -0,-0 -0,-0.01 -0,-0 -0,-0.01 -0,-0.01 -0,-0 -0,-0 -0,-0.01 -0,-0 -0,-0.01 -0.01,-0.01 -0,-0 -0,-0 -0,-0.01 -0,-0 -0.01,-0.01 -0.01,-0.01 -0,-0 -0,-0 -0,-0l-1.28 -1.04c-0.04,-0.03 -0.1,-0.03 -0.13,0.01 -0.03,0.04 -0.03,0.1 0.01,0.13l1.08 0.87 -2.25 0c-0.05,0 -0.09,0.04 -0.09,0.09 0,0.05 0.04,0.09 0.09,0.09l2.25 0 -1.05 0.84c-0.04,0.03 -0.05,0.09 -0.01,0.13 0.02,0.02 0.05,0.03 0.07,0.03 0.02,0 0.04,-0.01 0.06,-0.02l1.25 -1.01c0,-0 0,-0 0,-0 0,-0 0.01,-0.01 0.01,-0.01 0,-0 0,-0 0,-0.01 0,-0 0,-0.01 0.01,-0.01z"/>
 </g>
</svg>
